PathFileType	4	(X/Y/Z)	C:/Users/opensim2020/Desktop/walking_exp_matlab/subject06_walking23_straight_02.trc	
DataRate	CameraRate	NumFrames	NumMarkers	Units	OrigDataRate	OrigDataStartFrame	OrigNumFrames	
100.00	100.00	7	45	mm	100.00	1319	114	
Frame#	Time	LFHD			RFHD			LBHD			RBHD			C7			T10			CLAV			STRN			RBAK			LSHO			LUPA			LELB			LFRM			LWRA			LWRB			LFIN			RSHO			RUPA			RELB			RFRM			RWRA			RWRB			RFIN			LASI			RASI			LPSI			RPSI			LTHI			LKNE			LTIB			LANK			LHEE			LTOE			RTHI			RKNE			RTIB			RANK			RHEE			RTOE			*39			*40			*41			*42			*43			*44			
		X1	Y1	Z1	X2	Y2	Z2	X3	Y3	Z3	X4	Y4	Z4	X5	Y5	Z5	X6	Y6	Z6	X7	Y7	Z7	X8	Y8	Z8	X9	Y9	Z9	X10	Y10	Z10	X11	Y11	Z11	X12	Y12	Z12	X13	Y13	Z13	X14	Y14	Z14	X15	Y15	Z15	X16	Y16	Z16	X17	Y17	Z17	X18	Y18	Z18	X19	Y19	Z19	X20	Y20	Z20	X21	Y21	Z21	X22	Y22	Z22	X23	Y23	Z23	X24	Y24	Z24	X25	Y25	Z25	X26	Y26	Z26	X27	Y27	Z27	X28	Y28	Z28	X29	Y29	Z29	X30	Y30	Z30	X31	Y31	Z31	X32	Y32	Z32	X33	Y33	Z33	X34	Y34	Z34	X35	Y35	Z35	X36	Y36	Z36	X37	Y37	Z37	X38	Y38	Z38	X39	Y39	Z39	X40	Y40	Z40	X41	Y41	Z41	X42	Y42	Z42	X43	Y43	Z43	X44	Y44	Z44	X45	Y45	Z45	

43	0.420	-871.23865	202.16194	1642.66174	-1002.59149	185.57945	1644.90625	-893.44073	335.21228	1592.99048	-1021.43958	317.17160	1599.62073	-951.28888	331.10107	1437.98645	-967.16461	366.10547	1108.56042	-955.73413	218.86670	1362.76050	-957.74951	176.21791	1193.11816	-1034.47388	405.89252	1269.99841	-791.84015	270.90799	1387.54797	-719.92731	293.71710	1186.84265	-707.95270	316.75189	1076.39844	-683.48010	313.31375	927.12408	-726.02948	274.72992	803.20575	-683.15857	331.10693	809.83929	-684.31384	306.66574	721.62256	-1114.60742	269.80789	1396.86658	-1213.58911	305.55295	1204.85742	-1233.46082	290.49545	1084.73657	-1249.28918	244.18895	975.27606	-1208.21216	146.39439	864.67487	-1253.21179	194.22089	847.97369	-1248.93616	134.41548	788.59454	-869.42200	175.68977	962.84375	-1087.22266	195.29785	959.99786	-885.50897	337.61642	977.00360	-1051.47168	344.55148	970.98169	-807.71021	183.81903	645.76062	-838.89221	140.68188	490.14520	-848.22449	177.08667	233.73296	-895.15454	190.84294	64.87307	-939.20886	233.37827	52.21553	-902.83636	47.38140	35.09683	-1140.52246	219.32109	611.43561	-1129.37341	192.37541	487.03006	-1113.81470	385.31796	327.93109	-1063.57764	539.25189	229.90735	-1016.70795	576.08472	249.72939	-1059.68384	496.60678	78.20177	-938.20715	293.22290	1689.67859															 
44	0.430	-870.90442	187.70818	1644.59277	-1002.28882	170.97287	1646.62073	-893.16907	320.89999	1595.51233	-1021.18127	302.82956	1601.88806	-950.63214	317.57645	1440.20532	-966.02374	352.66647	1110.64612	-955.29407	205.38083	1364.90125	-957.12628	162.89668	1195.36096	-1032.87427	392.76422	1272.13660	-791.32324	256.92841	1389.87915	-719.42999	275.84171	1188.68787	-706.77692	296.05267	1077.81506	-682.95294	289.14597	928.43384	-726.82336	247.56589	805.87622	-682.98175	303.63867	810.64618	-684.24921	276.04272	723.57440	-1114.11340	256.92908	1398.74963	-1212.11243	294.07657	1206.50549	-1231.61877	279.63031	1086.10498	-1247.51038	235.99695	975.34338	-1206.62036	141.58415	861.91296	-1251.74500	189.71530	846.54425	-1247.34827	131.51865	785.54242	-868.42804	162.79262	964.79785	-1086.43469	181.33815	962.72986	-885.33948	324.43298	979.11926	-1051.27014	330.50665	973.48914	-807.66193	174.48178	646.57843	-838.62390	134.18919	489.88266	-847.75354	173.93861	233.66321	-895.04950	190.41501	64.90034	-938.68744	232.62868	52.07523	-902.66895	47.32465	35.00780	-1139.91357	198.59149	615.15448	-1128.09851	167.92487	491.69611	-1112.93799	357.04938	328.04007	-1062.98145	509.01138	225.81305	-1015.98230	547.31732	243.89369	-1060.24817	459.12515	77.09720	-938.09094	278.47028	1691.95691															 
45	0.440	-870.76373	173.25504	1646.29443	-1002.10498	156.44469	1648.09448	-893.01263	306.73822	1598.03149	-1020.98163	288.48926	1604.11987	-949.98633	304.06018	1442.17371	-965.01971	339.35449	1112.75513	-954.86157	191.99464	1366.90393	-956.54547	149.61116	1197.48279	-1031.54993	379.67422	1274.21912	-790.87183	243.12749	1392.23120	-718.96442	258.23889	1190.59302	-706.17181	276.24539	1079.36243	-683.22498	264.32425	930.00421	-727.27301	220.88440	808.76093	-682.70892	275.80798	812.05231	-684.36053	245.06697	726.03802	-1113.53674	244.16296	1400.63977	-1210.57166	282.67023	1208.15955	-1229.62939	269.03247	1087.57239	-1245.68640	227.94266	975.67285	-1204.90918	137.70129	859.08063	-1250.37988	185.50378	845.47577	-1245.91272	129.00473	782.70990	-867.19501	149.68874	966.47229	-1085.59277	167.39838	965.32538	-885.08667	311.17575	981.03656	-1051.15088	316.41003	975.89368	-807.64337	165.42305	647.21124	-838.19171	127.95615	489.52853	-847.35553	170.76900	233.57104	-895.16418	189.94792	64.82788	-938.44885	232.49084	52.50421	-902.44861	47.20022	34.88433	-1139.35889	177.99426	618.89172	-1126.86914	144.01642	496.38644	-1111.96338	328.88660	327.21109	-1062.34412	478.08298	220.50316	-1015.20428	517.61420	236.53691	-1060.92310	420.64532	75.23216	-938.33997	263.76031	1694.30713															 
46	0.450	-870.70880	158.86627	1647.91943	-1002.06232	142.04364	1649.37097	-892.91431	292.62341	1600.49280	-1020.83295	274.20688	1606.21948	-949.42859	290.78870	1444.04187	-964.18860	325.97269	1114.74097	-954.47699	178.80321	1368.82324	-955.99646	136.35510	1199.47192	-1030.48828	366.50604	1276.18408	-790.50464	229.54132	1394.45874	-718.44775	241.00037	1192.56152	-705.44232	256.45993	1080.96765	-682.73688	240.13683	932.00952	-728.25830	192.94464	812.39136	-682.83539	247.86761	813.63281	-684.47803	213.83220	729.02325	-1112.99353	231.50084	1402.48926	-1209.27124	271.00720	1209.82617	-1227.66187	258.69641	1089.06372	-1243.83972	220.13902	976.11694	-1203.44519	133.29019	856.64374	-1248.92554	181.40181	844.50452	-1244.59387	126.79984	780.12476	-865.96790	136.66193	967.97858	-1084.72070	153.45232	967.71765	-884.85040	297.95602	982.87201	-1051.02527	302.45462	978.18231	-807.42303	156.39972	647.57776	-837.92206	122.64282	488.97192	-847.17926	168.10519	233.57967	-894.96234	189.45863	65.27665	-938.54486	232.18095	52.93169	-902.06598	47.15303	34.78730	-1138.83325	157.43446	622.37927	-1125.73792	120.66632	500.91855	-1110.93823	300.62585	325.73856	-1061.56396	446.38434	214.09189	-1014.40662	487.04971	227.77290	-1061.69165	381.11823	73.00566	-938.41278	249.02249	1696.36914															 
47	0.460	-870.60052	144.56165	1649.42017	-1002.04395	127.71422	1650.45605	-892.81018	278.74521	1602.85425	-1020.73779	260.15173	1608.08118	-948.81696	277.49652	1445.68506	-963.39679	312.62958	1116.57727	-954.05591	165.57149	1370.54675	-955.46735	123.08898	1201.29016	-1029.62793	353.39783	1278.07019	-790.13568	216.07426	1396.51379	-717.91150	224.08690	1194.52759	-704.76471	237.01842	1082.61157	-682.47089	216.22253	934.04175	-728.86261	165.46007	816.12402	-683.34290	219.59894	815.40546	-685.20526	182.67233	732.35754	-1112.44128	218.81653	1404.19287	-1208.12427	259.41068	1211.48145	-1225.76086	248.70293	1090.47095	-1241.97949	212.62808	976.55450	-1202.02893	129.17876	854.34003	-1247.86560	177.37895	843.93372	-1243.41663	124.81546	777.71826	-864.72009	123.81745	969.27014	-1083.86633	139.67651	969.78894	-884.63910	284.74954	984.40668	-1050.85168	288.55109	980.22046	-807.32843	148.24811	647.94220	-837.35828	117.57800	488.37094	-847.02014	166.31427	233.70348	-894.96307	189.24734	65.52419	-938.66162	232.61671	53.89880	-901.60309	47.21825	34.69124	-1138.57300	137.36122	625.90698	-1124.63879	97.92181	505.29367	-1110.06665	272.57532	323.80667	-1060.90479	414.09442	206.80835	-1013.54486	456.00757	217.88673	-1062.40820	340.64880	70.64555	-938.48639	234.37665	1698.26709															 
48	0.470	-870.69696	130.33226	1650.68616	-1002.05023	113.53858	1651.28186	-892.69763	264.72675	1604.91052	-1020.67084	246.28282	1609.74170	-948.26184	264.23273	1447.15527	-962.62830	299.31845	1118.24207	-953.65204	152.23735	1372.14893	-954.95850	109.76744	1202.87976	-1028.83704	340.28201	1279.66675	-789.83832	202.74562	1398.34680	-717.37061	207.47966	1196.44409	-703.84259	217.61095	1084.24744	-682.44678	191.79016	936.23083	-729.70453	137.29889	820.51556	-683.78973	191.30928	817.53992	-685.96533	151.11566	736.19250	-1111.89160	205.98038	1405.72473	-1207.06787	248.14545	1213.09473	-1223.97290	238.85565	1091.71533	-1240.28345	205.33954	976.87793	-1200.70313	125.07032	852.14276	-1246.58887	173.62076	843.22443	-1242.34485	122.97170	775.43634	-863.56177	110.96561	970.28003	-1082.73352	126.11105	971.51575	-884.44983	271.75687	985.77832	-1050.67615	274.69412	982.01855	-807.09613	140.08975	648.19568	-836.98322	113.09342	487.71228	-846.80481	165.18320	233.92607	-895.11169	188.90524	65.77203	-940.91705	229.55765	52.47477	-901.19904	47.15702	34.59886	-1138.49463	117.72193	629.39801	-1123.59387	75.77985	509.52277	-1109.37036	244.51288	321.38562	-1060.34570	381.33060	198.71222	-1012.54401	424.10114	206.87236	-1063.43298	299.53223	67.91253	-938.64764	219.82683	1699.98596															 
49	0.480	-870.78589	116.22720	1651.84839	-1002.16254	99.50431	1651.95679	-892.54883	250.86018	1606.69470	-1020.30408	232.11948	1611.08569	-947.81274	251.01971	1448.37219	-961.94946	286.03128	1119.60168	-953.29059	139.07983	1373.44739	-954.44312	96.51727	1204.22681	-1028.10107	327.13034	1280.95313	-789.57135	189.52521	1399.94482	-716.75403	191.17465	1198.20007	-703.49591	198.59268	1085.77869	-682.41632	168.03397	938.56891	-730.43945	109.34279	825.16504	-684.37372	163.04465	819.96185	-686.87848	119.58324	740.35022	-1111.48730	193.20602	1407.04236	-1206.00879	236.98744	1214.51050	-1222.28796	229.23073	1092.78870	-1238.64966	198.29373	977.07788	-1199.47046	120.78530	849.98206	-1245.41589	169.93925	842.63629	-1241.38733	121.26652	773.30835	-862.36975	98.23611	971.07135	-1081.84412	111.81962	973.25031	-884.34161	258.84201	986.91052	-1050.52942	260.85092	983.57330	-806.67065	131.89589	648.42786	-836.28815	108.40363	487.11539	-846.67261	164.01787	234.14975	-895.15051	188.60167	66.18110	-939.26013	232.13025	54.83653	-900.74957	47.10915	34.52663	-1138.24243	98.26089	632.47711	-1122.42627	54.35410	513.57916	-1108.68604	216.51790	318.54547	-1059.74426	347.71698	189.69519	-1011.72736	390.82263	194.97609	-1064.45850	257.92755	64.90707	-938.80927	205.48436	1701.39685															 
